# xmcd CD database file
#
# Track frame offsets:
#	150
#	23925
#	51552
#
# Disc length: 928 seconds
#
# Revision: 0
# Processed by: cddbd v1.5.2PL0 Copyright (c) Steve Scherf et al.
# Submitted via: CDex 1.70beta2
#
DISCID=24039e03
DTITLE=Divine Intervention - Demo 2007
DYEAR=2007
DGENRE=
TTITLE0=Pariah
TTITLE1=City Lights
TTITLE2=Volume!
EXTD=YEAR: 2007
EXTT0=
EXTT1=
EXTT2=
PLAYORDER=
